<?xml version="1.0" encoding="utf-8"?>
<!-- Generator: Adobe Illustrator 19.0.0, SVG Export Plug-In . SVG Version: 6.00 Build 0)  -->
<svg version="1.1" id="Layer_1" xmlns="http://www.w3.org/2000/svg" xmlns:xlink="http://www.w3.org/1999/xlink" x="0px" y="0px"
	 viewBox="22 -22 300 300" style="enable-background:new 22 -22 300 300;" xml:space="preserve">
<style type="text/css">
	.st0{fill:#FFC107;}
	.st1{fill:#FFA000;}
	.st2{fill:#33383D;}
	.st3{fill:#4B5155;}
	.st4{fill:#FFFFFF;}
	.st5{fill:#84D2F6;}
	.st6{fill:#FFCB28;}
	.st7{fill:#D9D8D7;}
</style>
<g>
	<rect x="22" y="-22" class="st0" width="300" height="300"/>
	<polygon class="st1" points="322,105.1 257.4,40.5 230.6,58.7 202.9,31 89.8,85.2 131.1,126.5 73.2,165.9 128.1,220.7 121.7,225 
		174.7,278 322,278 	"/>
	<g>
		<g>
			<polygon class="st2" points="222.3,225 185,136.1 174.7,140.5 209.8,225 			"/>
			<polygon class="st2" points="134.2,225 169.3,140.5 159,136.1 121.7,225 			"/>
			<rect x="145.3" y="186.8" class="st2" width="53.4" height="6.8"/>
		</g>
		<rect x="73.2" y="156.3" class="st3" width="197.6" height="9.5"/>
		<rect x="141.1" y="31" class="st2" width="61.7" height="9.5"/>
		<g>
			<rect x="86.6" y="40.5" class="st4" width="170.8" height="115.8"/>
			<rect x="86.6" y="124.9" class="st5" width="170.8" height="31.4"/>
			<g>
				<polygon class="st3" points="159.1,110 144.2,124.9 174.1,124.9 				"/>
				<polygon class="st3" points="226.9,101.9 203.9,124.9 249.9,124.9 				"/>
				<polygon class="st2" points="127.3,89.4 91.8,124.9 162.8,124.9 				"/>
			</g>
			<g>
				<circle class="st6" cx="140.4" cy="65.7" r="11"/>
				<path class="st7" d="M223.7,62.6c-0.2,0-0.5,0-0.7,0.1c0,0,0,0,0,0c0-3.1-2.5-5.5-5.5-5.5c-2.6,0-4.8,1.8-5.4,4.2
					c-0.3-0.1-0.6-0.1-0.9-0.1c-2.2,0-4.1,1.8-4.1,4.1s1.8,4,4.1,4h12.5c1.8,0,3.3-1.5,3.3-3.3C227,64.1,225.6,62.6,223.7,62.6z"/>
				<path class="st7" d="M166.5,79.3C166.5,79.3,166.5,79.3,166.5,79.3c0-0.1,0-0.2,0-0.3c0-5.2,4.2-9.4,9.4-9.4
					c4.3,0,7.9,2.8,9,6.7c0.7-0.3,1.5-0.5,2.3-0.5c3,0,5.5,2.5,5.5,5.5c0,0.7-0.1,1.4-0.4,2c0.1,0,0.1,0,0.2,0
					c1.9,0,3.5,1.6,3.5,3.5c0,1.9-1.6,3.5-3.5,3.5h-26.1c-3,0-5.5-2.5-5.5-5.5C161,81.7,163.5,79.3,166.5,79.3z"/>
			</g>
		</g>
	</g>
</g>
</svg>
