<?xml version="1.0" encoding="utf-8"?>
<!-- Generator: Adobe Illustrator 19.0.0, SVG Export Plug-In . SVG Version: 6.00 Build 0)  -->
<svg version="1.1" id="Layer_1" xmlns="http://www.w3.org/2000/svg" xmlns:xlink="http://www.w3.org/1999/xlink" x="0px" y="0px"
	 viewBox="22 -22 300 300" style="enable-background:new 22 -22 300 300;" xml:space="preserve">
<style type="text/css">
	.st0{fill:#2196F3;}
	.st1{fill:#1976D2;}
	.st2{fill:#434B62;}
	.st3{fill:#FFFFFF;}
	.st4{fill:#FFB432;}
	.st5{fill:#FFCF5B;}
	.st6{fill:none;stroke:#28CD7E;stroke-width:5;stroke-miterlimit:10;}
	.st7{fill:#D2D4DC;}
</style>
<rect x="22" y="-22" class="st0" width="300" height="300"/>
<polyline class="st1" points="99.9,214.4 162.7,278 322,278 322,120 243.9,41.4 224.3,39.3 214.3,29.3 199.1,29.3 183.5,13.2 "/>
<path class="st2" d="M237.3,217.5H106.7c-4.9,0-9-4.1-9-9v-161c0-5,4.1-9,9-9h130.7c5,0,9,4,9,9v161
	C246.3,213.4,242.3,217.5,237.3,217.5z"/>
<path class="st3" d="M224.3,201.8H119.7c-4.9,0-9-4.1-9-9V63.2c0-5,4.1-9,9-9h104.7c5,0,9,4,9,9v129.7
	C233.3,197.8,229.3,201.8,224.3,201.8z"/>
<rect x="129.7" y="29.3" class="st4" width="84.7" height="20"/>
<rect x="129.7" y="49.3" class="st5" width="84.7" height="12.3"/>
<circle class="st4" cx="172" cy="28.3" r="19"/>
<circle class="st1" cx="172" cy="27.6" r="6.2"/>
<polyline class="st6" points="129.7,90.7 134,95 145.3,84.3 "/>
<polyline class="st6" points="129.7,115 134,119.4 145.3,108.7 "/>
<polyline class="st6" points="129.7,138.4 134,142.7 145.3,132.1 "/>
<polyline class="st6" points="129.7,161.1 134,165.4 145.3,154.7 "/>
<path class="st7" d="M211,95h-50.3c-1.8,0-3.3-1.5-3.3-3.3V90c0-1.8,1.5-3.3,3.3-3.3H211c1.8,0,3.3,1.5,3.3,3.3v1.7
	C214.3,93.5,212.8,95,211,95z"/>
<path class="st7" d="M211,118.2h-50.3c-1.8,0-3.3-1.5-3.3-3.3v-1.7c0-1.8,1.5-3.3,3.3-3.3H211c1.8,0,3.3,1.5,3.3,3.3v1.7
	C214.3,116.7,212.8,118.2,211,118.2z"/>
<path class="st7" d="M211,141.6h-50.3c-1.8,0-3.3-1.5-3.3-3.3v-1.7c0-1.8,1.5-3.3,3.3-3.3H211c1.8,0,3.3,1.5,3.3,3.3v1.7
	C214.3,140.1,212.8,141.6,211,141.6z"/>
<path class="st7" d="M211,164.2h-50.3c-1.8,0-3.3-1.5-3.3-3.3v-1.7c0-1.8,1.5-3.3,3.3-3.3H211c1.8,0,3.3,1.5,3.3,3.3v1.7
	C214.3,162.7,212.8,164.2,211,164.2z"/>
</svg>
